<?xml version="1.0" standalone="no"?>
<!DOCTYPE svg PUBLIC "-//W3C//DTD SVG 20010904//EN"
 "http://www.w3.org/TR/2001/REC-SVG-20010904/DTD/svg10.dtd">
<svg version="1.0" xmlns="http://www.w3.org/2000/svg"
 width="800.000000pt" height="800.000000pt" viewBox="0 0 800.000000 800.000000"
 preserveAspectRatio="xMidYMid meet">
<metadata>
Created by potrace 1.11, written by Peter Selinger 2001-2013
</metadata>
<g transform="translate(0.000000,800.000000) scale(0.100000,-0.100000)"
fill="#000000" stroke="none">
<path d="M3758 7995 c-1 -1 -46 -6 -98 -9 -52 -4 -104 -9 -115 -11 -11 -3 -47
-7 -79 -10 -32 -3 -62 -7 -65 -10 -4 -2 -29 -6 -56 -9 -66 -8 -259 -50 -375
-81 -52 -14 -102 -27 -110 -29 -8 -2 -62 -20 -120 -39 -595 -200 -1111 -518
-1550 -957 -183 -182 -202 -203 -312 -340 -349 -435 -607 -947 -748 -1485 -23
-87 -64 -283 -75 -355 -4 -25 -9 -54 -11 -65 -27 -140 -39 -331 -39 -595 0
-298 8 -401 50 -660 117 -714 435 -1394 914 -1950 73 -85 350 -362 425 -426
525 -442 1101 -729 1756 -873 52 -11 111 -23 130 -26 19 -3 42 -8 50 -10 8 -3
40 -8 70 -11 30 -3 62 -7 70 -9 8 -1 47 -5 85 -10 39 -4 81 -9 95 -12 66 -11
585 -9 700 2 207 21 243 25 249 30 4 2 29 6 56 9 138 17 548 120 665 169 14 5
30 11 35 12 6 2 57 22 115 45 434 173 824 411 1170 715 99 87 324 315 397 404
43 51 83 99 88 105 61 65 226 306 327 474 135 228 306 611 368 827 52 179 108
419 126 535 3 25 8 54 10 65 26 139 39 328 39 595 0 283 -8 399 -45 630 -62
391 -180 764 -349 1110 -55 113 -80 160 -151 285 -96 170 -284 430 -439 610
-55 64 -351 356 -405 400 -27 22 -54 45 -61 51 -29 29 -269 206 -349 258 -354
231 -748 408 -1141 515 -108 29 -324 77 -394 87 -20 3 -61 9 -91 14 -30 5 -86
12 -125 16 -38 4 -81 8 -95 11 -30 5 -587 13 -592 8z m527 -1610 c22 -3 67
-10 100 -16 33 -6 71 -12 85 -14 64 -10 272 -70 366 -105 325 -122 597 -296
846 -542 202 -199 325 -366 455 -618 96 -185 189 -453 218 -625 2 -11 8 -47
14 -80 6 -33 14 -94 19 -135 11 -112 7 -476 -6 -550 -6 -36 -14 -85 -17 -110
-41 -299 -220 -726 -416 -990 -115 -154 -137 -180 -269 -311 -270 -267 -590
-460 -960 -578 -90 -29 -192 -54 -263 -66 -17 -3 -39 -8 -47 -10 -102 -29
-512 -40 -684 -19 -549 68 -1028 298 -1412 679 -239 237 -413 497 -538 803
-57 139 -122 365 -139 482 -3 19 -8 55 -12 80 -3 25 -9 59 -11 75 -9 59 -12
431 -3 500 28 226 57 357 119 544 53 157 147 356 222 469 15 24 28 45 28 47 0
11 133 192 195 265 60 71 245 250 321 311 222 176 490 321 769 414 59 20 185
53 224 60 19 3 37 8 41 10 3 2 33 7 65 10 33 4 63 9 66 11 3 2 42 6 85 10 43
3 81 8 83 10 5 5 411 -5 456 -11z"/>
</g>
</svg>
