<svg width="156" height="24" viewBox="0 0 156 24" fill="none" xmlns="http://www.w3.org/2000/svg">
<path d="M19.7337 0L15.547 14.5228L11.7602 1.38821L11.3602 0H10.2669L9.86686 1.38821L6.08012 14.5228L1.89337 0H0L5.1201 17.8598L5.52011 19.2481H6.64013L7.04014 17.8598L10.8002 4.72525L14.587 17.8598L14.987 19.2481H16.107L16.507 17.8598L21.6271 0H19.7337Z" fill="#212121"/>
<path d="M30.0133 4.08454C24.9465 4.08454 22.4932 6.5673 22.4932 11.6663C22.4932 14.2024 23.0798 16.0445 24.3065 17.3259C25.5866 18.634 27.4533 19.2481 30.0133 19.2481C35.1067 19.2481 37.5601 16.7653 37.5601 11.6663C37.5601 6.5673 35.1067 4.08454 30.0133 4.08454ZM30.0133 17.5929C27.9599 17.5929 26.5199 16.9522 25.6399 16.0445C24.7599 15.1368 24.3332 13.6952 24.3332 11.6663C24.3332 7.60845 25.9599 5.76641 30.0133 5.76641C34.0667 5.76641 35.7201 7.60845 35.7201 11.6663C35.7201 15.7508 34.0667 17.5929 30.0133 17.5929Z" fill="#212121"/>
<path d="M48.357 4.08454C45.4236 4.13793 43.6903 4.99221 42.7302 6.70078V4.67186H40.9169V18.6607H42.7302V11.7464C42.7036 7.66185 44.3303 5.8198 48.3837 5.76641H48.4103V4.08454C48.3837 4.08454 48.3837 4.08454 48.357 4.08454Z" fill="#212121"/>
<path d="M66.1726 6.72748V4.67186H64.3325V7.07453C64.3325 7.68854 63.9325 8.22247 63.3459 8.40934L52.679 11.6129V0H50.8656V18.6874H52.679V13.535L60.6791 11.1324L63.9325 18.6607H65.9326L62.4658 10.5984L63.5325 10.2514C65.1059 9.79755 66.1726 8.35595 66.1726 6.72748Z" fill="#212121"/>
<path d="M71.8369 1.65517H83.9704V0H72.3169C70.2635 0 68.6368 1.62848 68.6368 3.68409V5.17909C68.6368 6.78087 69.6768 8.22247 71.2235 8.67631L81.1704 11.7464C81.7304 11.9333 82.1304 12.4672 82.1304 13.0812V15.6174C82.1304 16.3915 81.5171 17.0056 80.7437 17.0056H68.6368V18.6874H80.2904C82.3171 18.6874 83.9704 17.0323 83.9704 14.9766V13.5884C83.9704 11.96 82.9037 10.545 81.3837 10.0645L71.4369 6.99444C70.8502 6.83426 70.4502 6.30033 70.4502 5.68632V3.04338C70.4502 2.26919 71.0902 1.65517 71.8369 1.65517Z" fill="#212121"/>
<path d="M94.6346 4.08454C91.7012 4.13793 89.9678 4.99221 89.0078 6.70078V4.67186H87.1945V24H89.0078V16.6051C89.9412 18.3671 91.6746 19.2481 94.6346 19.2481C94.688 19.2481 94.7679 19.2481 94.8213 19.2481C99.888 19.1947 102.341 16.6852 102.261 11.5862C102.208 6.48721 99.7014 4.03115 94.6346 4.08454ZM94.7946 17.5929C90.7412 17.6463 89.0612 15.8309 89.0345 11.7464C88.9812 7.66185 90.6079 5.8198 94.6613 5.76641C94.7146 5.76641 94.7679 5.76641 94.8213 5.76641C98.768 5.76641 100.368 7.58176 100.421 11.6129C100.475 15.6707 98.848 17.5395 94.7946 17.5929Z" fill="#212121"/>
<path d="M118.352 4.67186V6.70078C117.419 4.99221 115.685 4.13793 112.752 4.08454C107.685 4.03115 105.178 6.48721 105.125 11.5862C105.045 16.6852 107.498 19.1947 112.565 19.2481C112.619 19.2481 112.699 19.2481 112.752 19.2481C115.712 19.2481 117.445 18.3671 118.352 16.6051V18.6607H120.192V4.67186H118.352ZM112.592 17.5929C108.538 17.5395 106.912 15.6707 106.965 11.6129C106.992 7.58176 108.618 5.76641 112.565 5.76641C112.619 5.76641 112.672 5.76641 112.725 5.76641C116.779 5.8198 118.405 7.66185 118.352 11.7464C118.299 15.8309 116.619 17.6463 112.592 17.5929Z" fill="#212121"/>
<path d="M131.109 17.5929C127.056 17.5929 125.429 15.7508 125.429 11.6663C125.429 7.55506 127.056 5.71302 131.109 5.71302C134.176 5.71302 135.883 6.86096 136.523 9.07675L138.336 8.80979C137.536 5.60623 135.136 4.05784 131.109 4.05784C126.042 4.05784 123.589 6.5406 123.589 11.6663C123.589 16.7653 126.042 19.2481 131.109 19.2481C135.136 19.2481 137.536 17.6997 138.336 14.4961L136.523 14.2291C135.883 16.4449 134.176 17.5929 131.109 17.5929Z" fill="#212121"/>
<path d="M156 12.5206C156 12.2002 156 11.9066 156 11.5862C156 11.3192 156 11.079 155.973 10.8387C155.84 8.67631 155.227 7.07453 154.107 5.95328C152.853 4.69856 151.04 4.08454 148.56 4.08454C148.507 4.08454 148.427 4.08454 148.373 4.08454C143.306 4.16463 140.853 6.67408 140.933 11.7731C140.96 14.2825 141.573 16.1246 142.826 17.3793C144.106 18.6874 145.973 19.3014 148.56 19.2481C151.12 19.2214 152.987 18.5806 154.24 17.2458C154.8 16.6585 155.2 15.9644 155.493 15.1368L153.627 14.8699C153.44 15.297 153.2 15.6707 152.907 15.9911C152.027 16.9255 150.587 17.5662 148.533 17.5929C148.48 17.5929 148.427 17.5929 148.373 17.5929C146.4 17.5929 145.013 16.9789 144.133 16.0979C143.36 15.297 142.906 14.1224 142.8 12.5206H156ZM142.773 10.8387C142.986 7.39488 144.666 5.8198 148.4 5.76641C150.453 5.73971 151.893 6.35373 152.8 7.2614C153.573 8.03559 154.027 9.21023 154.133 10.8387H142.773Z" fill="#212121"/>
</svg>
