<svg width="312" height="48" viewBox="0 0 312 48" fill="none" xmlns="http://www.w3.org/2000/svg">
<path d="M39.4675 0L31.094 29.0456L23.5205 2.77642L22.7205 0H20.5337L19.7337 2.77642L12.1602 29.0456L3.78674 0H0L10.2402 35.7197L11.0402 38.4961H13.2803L14.0803 35.7197L21.6004 9.4505L29.1739 35.7197L29.9739 38.4961H32.214L33.014 35.7197L43.2542 0H39.4675Z" fill="#212121"/>
<path d="M60.0266 8.16908C49.8931 8.16908 44.9863 13.1346 44.9863 23.3326C44.9863 28.4049 46.1597 32.089 48.6131 34.6518C51.1731 37.2681 54.9065 38.4961 60.0266 38.4961C70.2135 38.4961 75.1203 33.5306 75.1203 23.3326C75.1203 13.1346 70.2135 8.16908 60.0266 8.16908ZM60.0266 35.1858C55.9199 35.1858 53.0398 33.9043 51.2798 32.089C49.5197 30.2736 48.6664 27.3904 48.6664 23.3326C48.6664 15.2169 51.9198 11.5328 60.0266 11.5328C68.1334 11.5328 71.4402 15.2169 71.4402 23.3326C71.4402 31.5017 68.1334 35.1858 60.0266 35.1858Z" fill="#212121"/>
<path d="M96.714 8.16908C90.8472 8.27586 87.3805 9.98443 85.4605 13.4016V9.34371H81.8337V37.3215H85.4605V23.4928C85.4071 15.3237 88.6605 11.6396 96.7674 11.5328H96.8207V8.16908C96.7674 8.16908 96.7674 8.16908 96.714 8.16908Z" fill="#212121"/>
<path d="M132.345 13.455V9.34371H128.665V14.1491C128.665 15.3771 127.865 16.4449 126.692 16.8187L105.358 23.2258V0H101.731V37.3749H105.358V27.0701L121.358 22.2647L127.865 37.3215H131.865L124.932 21.1969L127.065 20.5028C130.212 19.5951 132.345 16.7119 132.345 13.455Z" fill="#212121"/>
<path d="M143.674 3.31035H167.941V0H144.634C140.527 0 137.274 3.25696 137.274 7.36819V10.3582C137.274 13.5617 139.354 16.4449 142.447 17.3526L162.341 23.4928C163.461 23.8665 164.261 24.9344 164.261 26.1624V31.2347C164.261 32.7831 163.034 34.0111 161.487 34.0111H137.274V37.3749H160.581C164.634 37.3749 167.941 34.0645 167.941 29.9533V27.1769C167.941 23.9199 165.807 21.0901 162.767 20.129L142.874 13.9889C141.7 13.6685 140.9 12.6007 140.9 11.3726V6.08676C140.9 4.53838 142.18 3.31035 143.674 3.31035Z" fill="#212121"/>
<path d="M189.269 8.16908C183.402 8.27586 179.936 9.98443 178.016 13.4016V9.34371H174.389V48H178.016V33.2102C179.882 36.7341 183.349 38.4961 189.269 38.4961C189.376 38.4961 189.536 38.4961 189.643 38.4961C199.776 38.3893 204.683 33.3704 204.523 23.1724C204.416 12.9744 199.403 8.06229 189.269 8.16908ZM189.589 35.1858C181.482 35.2925 178.122 31.6618 178.069 23.4928C177.962 15.3237 181.216 11.6396 189.323 11.5328C189.429 11.5328 189.536 11.5328 189.643 11.5328C197.536 11.5328 200.736 15.1635 200.843 23.2258C200.949 31.3415 197.696 35.079 189.589 35.1858Z" fill="#212121"/>
<path d="M236.704 9.34371V13.4016C234.837 9.98443 231.37 8.27586 225.504 8.16908C215.37 8.06229 210.357 12.9744 210.25 23.1724C210.09 33.3704 214.997 38.3893 225.13 38.4961C225.237 38.4961 225.397 38.4961 225.504 38.4961C231.424 38.4961 234.891 36.7341 236.704 33.2102V37.3215H240.384V9.34371H236.704ZM225.184 35.1858C217.077 35.079 213.823 31.3415 213.93 23.2258C213.983 15.1635 217.237 11.5328 225.13 11.5328C225.237 11.5328 225.344 11.5328 225.45 11.5328C233.557 11.6396 236.811 15.3237 236.704 23.4928C236.597 31.6618 233.237 35.2925 225.184 35.1858Z" fill="#212121"/>
<path d="M262.218 35.1858C254.111 35.1858 250.858 31.5017 250.858 23.3326C250.858 15.1101 254.111 11.426 262.218 11.426C268.352 11.426 271.765 13.7219 273.045 18.1535L276.672 17.6196C275.072 11.2125 270.272 8.11568 262.218 8.11568C252.085 8.11568 247.178 13.0812 247.178 23.3326C247.178 33.5306 252.085 38.4961 262.218 38.4961C270.272 38.4961 275.072 35.3993 276.672 28.9922L273.045 28.4583C271.765 32.8899 268.352 35.1858 262.218 35.1858Z" fill="#212121"/>
<path d="M312 25.0412C312 24.4004 312 23.8131 312 23.1724C312 22.6385 312 22.158 311.947 21.6774C311.68 17.3526 310.453 14.1491 308.213 11.9066C305.707 9.39711 302.08 8.16908 297.12 8.16908C297.013 8.16908 296.853 8.16908 296.746 8.16908C286.613 8.32926 281.706 13.3482 281.866 23.5462C281.919 28.5651 283.146 32.2492 285.653 34.7586C288.213 37.3749 291.946 38.6029 297.12 38.4961C302.24 38.4427 305.973 37.1613 308.48 34.4917C309.6 33.317 310.4 31.9288 310.987 30.2736L307.253 29.7397C306.88 30.594 306.4 31.3415 305.813 31.9822C304.053 33.8509 301.173 35.1324 297.066 35.1858C296.96 35.1858 296.853 35.1858 296.746 35.1858C292.8 35.1858 290.026 33.9577 288.266 32.1958C286.72 30.594 285.813 28.2447 285.599 25.0412H312ZM285.546 21.6774C285.973 14.7898 289.333 11.6396 296.8 11.5328C300.906 11.4794 303.786 12.7075 305.6 14.5228C307.147 16.0712 308.053 18.4205 308.267 21.6774H285.546Z" fill="#212121"/>
</svg>
